<svg width="394" height="155" viewBox="0 0 394 155" fill="none" xmlns="http://www.w3.org/2000/svg">
<path d="M63.9322 154.778C58.7235 154.786 53.5966 153.426 49.0233 150.822C44.4501 148.218 40.5774 144.454 37.7618 139.877H37.0915C29.2176 139.87 21.5498 137.248 15.1961 132.391C8.8425 127.533 4.13215 120.691 1.74587 112.854C-0.640422 105.017 -0.579045 96.5896 1.92113 88.7911C4.4213 80.9925 9.23076 74.2263 15.6544 69.4703C15.715 57.0843 20.4589 45.225 28.8528 36.4757C37.2468 27.7264 48.6107 22.796 60.4692 22.7584C64.2856 16.7685 69.4571 11.8538 75.5258 8.44966C81.5946 5.04547 88.3733 3.25675 95.2618 3.24191C104.662 3.21825 113.791 6.53305 121.151 12.6423C125.118 8.53237 129.835 5.29634 135.022 3.12608C140.209 0.955826 145.76 -0.104453 151.347 0.00810927C156.934 0.120672 162.442 1.40378 167.545 3.78137C172.648 6.15895 177.242 9.58259 181.054 13.8493C187.073 12.0542 193.441 11.9652 199.504 13.5914C205.566 15.2175 211.105 18.5002 215.551 23.1023C219.997 27.7043 223.19 33.4596 224.801 39.7771C226.413 46.0945 226.385 52.7461 224.721 59.0486C227.83 62.07 230.307 65.7306 231.997 69.8004C233.686 73.8701 234.55 78.2609 234.536 82.6966C234.527 88.7649 232.892 94.7094 229.816 99.857C226.739 105.005 222.344 109.15 217.128 111.822C218.98 124.337 225.921 136.654 225.995 136.786C226.564 137.778 226.745 138.962 226.499 140.089C225.225 145.927 219.436 148.38 216.221 148.91C215.755 148.989 215.28 148.989 214.814 148.91C199.762 146.202 193.062 133.822 190.288 126.058C188.462 126.017 186.646 125.758 184.877 125.285C181.975 128.499 178.473 131.058 174.587 132.803C170.701 134.547 166.514 135.441 162.284 135.428C154.082 135.403 146.218 132.018 140.38 126C138.092 130.178 134.945 133.772 131.165 136.526C127.386 139.279 123.069 141.122 118.526 141.923C113.982 142.723 109.325 142.461 104.891 141.154C100.456 139.848 96.3539 137.53 92.8804 134.368C90.5813 140.417 86.5886 145.601 81.424 149.242C76.2594 152.884 70.1632 154.813 63.9322 154.778ZM40.1507 130.739C40.9354 130.74 41.7049 130.965 42.376 131.39C43.047 131.815 43.5942 132.423 43.9581 133.149C46.2092 137.655 49.796 141.278 54.1821 143.477C58.5682 145.677 63.5181 146.334 68.2917 145.352C73.0653 144.369 77.4062 141.799 80.6653 138.026C83.9244 134.252 85.9268 129.479 86.3729 124.418C86.4573 123.487 86.8177 122.607 87.404 121.9C87.9902 121.194 88.773 120.696 89.6432 120.476C90.5134 120.256 91.4275 120.326 92.2581 120.674C93.0888 121.023 93.7944 121.634 94.2766 122.422C96.6103 126.283 99.9688 129.352 103.943 131.255C107.917 133.158 112.335 133.812 116.659 133.139C120.983 132.465 125.026 130.492 128.295 127.461C131.565 124.43 133.92 120.471 135.073 116.066C135.295 115.216 135.752 114.453 136.386 113.873C137.02 113.292 137.804 112.919 138.639 112.799C139.475 112.68 140.326 112.82 141.086 113.202C141.846 113.585 142.482 114.192 142.914 114.948C144.793 118.239 147.413 121 150.546 122.993C153.68 124.985 157.231 126.149 160.893 126.382C164.554 126.615 168.215 125.911 171.557 124.331C174.899 122.751 177.821 120.343 180.069 117.316C180.643 116.545 181.441 115.991 182.344 115.737C183.246 115.483 184.203 115.543 185.069 115.908C187.507 116.946 190.165 117.291 192.773 116.909C193.799 116.767 194.84 117.016 195.704 117.611C196.568 118.206 197.197 119.106 197.477 120.147C199.184 126.472 203.773 137.308 215.466 139.877C216.119 139.682 216.743 139.39 217.317 139.01C214.725 133.946 209.058 121.602 208.18 109.327C208.11 108.345 208.35 107.365 208.865 106.54C209.379 105.714 210.14 105.088 211.028 104.759C214.829 103.343 218.194 100.883 220.767 97.6377C223.341 94.392 225.029 90.4811 225.652 86.3173C226.276 82.1536 225.812 77.8912 224.31 73.9798C222.808 70.0683 220.323 66.6527 217.117 64.0931C216.385 63.5075 215.853 62.6918 215.598 61.7663C215.343 60.8407 215.38 59.8541 215.703 58.9519C217.496 53.9354 217.864 48.4851 216.765 43.255C215.666 38.0249 213.145 33.2373 209.505 29.4667C205.865 25.6961 201.26 23.1028 196.244 21.998C191.228 20.8932 186.013 21.3238 181.225 23.2381C180.376 23.5787 179.445 23.6293 178.566 23.3826C177.688 23.1358 176.907 22.6044 176.336 21.8648C173.238 17.847 169.319 14.6037 164.867 12.372C160.414 10.1404 155.539 8.97701 150.601 8.96699C145.662 8.95698 140.783 10.1006 136.322 12.3142C131.861 14.5277 127.93 17.7552 124.817 21.7603C124.441 22.2469 123.971 22.646 123.438 22.932C122.906 23.2179 122.321 23.3845 121.723 23.4209C121.125 23.4573 120.527 23.3628 119.966 23.1435C119.405 22.9241 118.894 22.5848 118.466 22.1472C114.856 18.4423 110.483 15.6504 105.68 13.9858C100.877 12.3212 95.7726 11.8282 90.7589 12.5446C85.7453 13.261 80.9554 15.1678 76.757 18.1186C72.5586 21.0694 69.0634 24.9857 66.5396 29.5669C66.1373 30.2822 65.5555 30.8689 64.857 31.2637C64.1585 31.6585 63.3699 31.8463 62.5766 31.8068C61.9026 31.7681 61.2248 31.7449 60.5433 31.7449C50.9196 31.7541 41.6927 35.7513 34.8877 42.859C28.0827 49.9667 24.2558 59.6042 24.247 69.656C24.247 70.3175 24.247 70.9713 24.2952 71.625C24.3353 72.4339 24.1655 73.239 23.8037 73.9554C23.4419 74.6717 22.9015 75.2727 22.2396 75.6947C16.9384 79.0809 12.8411 84.1829 10.571 90.2246C8.30085 96.2664 7.98214 102.917 9.66331 109.166C11.3445 115.414 14.9335 120.918 19.8845 124.84C24.8355 128.762 30.8775 130.888 37.0915 130.894C37.9507 130.894 38.8211 130.848 39.7507 130.759C39.8841 130.766 40.0174 130.739 40.1507 130.739Z" fill="#652f87"/>
<path d="M30.0995 78.391C30.2884 77.1802 30.3958 75.7875 30.444 75.2034C30.4217 73.7643 32.4514 67.2769 33.3773 65.5825C40.9736 52.1705 59.3884 52.4993 65.8217 66.2208C68.2032 71.157 65.1217 73.0409 61.3477 69.0293C56.8514 64.3871 55.5329 63.362 52.2329 62.2324C46.4921 60.4335 45.5329 61.3658 42.3699 71.8804C41.7366 74.2015 41.1847 76.7198 41.1736 77.3891C41.1625 78.0583 41.2292 79.5941 41.1736 80.627C41.0032 89.7489 45.5958 102.724 50.9329 108.739C51.469 109.299 51.9378 109.925 52.3292 110.604C52.744 111.509 55.0403 113.478 56.6625 114.445C57.4032 114.863 58.2403 115.327 58.6699 115.556C62.6366 118.136 66.3477 117.381 70.8921 113.32C75.5588 109.064 77.2921 105.196 77.6514 98.0932C77.8069 93.1067 80.6847 90.5458 83.7995 92.4336C86.318 93.9578 86.5773 99.8495 84.281 106.917C83.5143 109.424 83.0254 110.449 79.5143 115.339C77.7143 117.919 72.6292 121.258 68.6995 122.233C47.6884 127.884 27.018 104.368 30.0995 78.391Z" fill="#652f87"/>
<path d="M126.129 97.9075C125.611 98.3679 119.285 100.728 117.322 101.196C116.544 101.401 112.6 102.782 108.562 104.383C99.781 107.749 100.111 107.718 97.7551 105.049C95.7365 102.875 92.9884 94.8592 86.644 72.6541C85.9328 70.0816 84.4958 65.3852 83.5217 62.2943C81.0328 54.5302 81.0069 54.449 86.9514 52.2362C88.7588 51.5631 91.2662 50.449 92.4439 49.9151C93.6699 49.2807 96.0254 48.2246 97.7291 47.4973C99.5069 46.7469 101.714 45.7449 102.714 45.1763C106.492 43.3233 108.218 43.6521 109.133 46.3368C110.292 49.7179 109.133 50.5921 97.8551 54.8088L90.5736 57.5361L91.6551 60.9442C92.2254 62.8784 93.5773 67.0564 94.681 70.2788L96.6217 76.2208L101.537 74.2053C109.685 70.7237 109.685 70.7237 111.166 71.5864C114.544 73.5206 112.87 75.5593 105.029 79.1996C103.277 80.0313 101.1 81.1106 100.296 81.4974L98.8143 82.4026L101.081 89.2731C102.348 92.9675 103.644 97.01 104.022 98.1087C104.803 100.387 104.903 100.43 109.611 98.0584C112.088 96.8708 118.681 94.0507 122.096 92.863C125.418 91.6096 128.559 95.5826 126.129 97.9075ZM88.0551 41.2691C87.8301 41.0187 87.6673 40.7145 87.581 40.3832C87.2847 39.5167 87.2995 39.0679 87.9921 37.1259C88.1884 36.6965 88.3625 36.008 88.5699 35.5786C88.7365 35.0757 88.9217 34.3832 89.0662 34.0621C89.208 33.7948 89.2808 33.4935 89.2773 33.1878C89.0069 32.4141 91.3514 29.5747 92.3847 29.3658C93.9699 29.037 94.9291 31.3426 94.0625 33.5283C93.361 35.561 92.8875 37.6718 92.6514 39.8184C92.4439 41.9345 91.9106 42.6617 90.5884 42.7198C89.2662 42.7778 88.6625 42.5496 88.3662 41.683C88.3042 41.5158 88.1959 41.3717 88.0551 41.2691Z" fill="#652f87"/>
<path d="M158.095 43.8881C161.332 47.184 161.799 47.9306 164.095 53.2034C165.358 56.0893 166.317 61.5322 166.384 66.8939C166.462 71.099 166.384 71.4278 164.332 75.9616C163.893 76.9282 163.503 77.9187 163.165 78.9288C160.402 87.01 151.01 92.5342 142.643 90.9675C140.867 90.5796 139.157 89.9118 137.573 88.9868C136.939 88.658 135.836 88.0003 135.125 87.6715C126.439 83.1338 122.495 69.451 125.81 55.6792C126.125 54.2788 126.599 52.4645 126.758 51.6405C128.099 45.536 134.81 38.035 140.176 36.8784C147.362 35.2149 151.313 36.7971 158.095 43.8881ZM143.728 42.8165C141.754 43.8068 138.991 46.4451 138.991 47.3504C138.74 47.8682 138.45 48.3649 138.125 48.8358C137.789 49.2702 137.497 49.7395 137.254 50.2362C137.119 50.658 136.961 51.0713 136.78 51.4742C136.041 53.1514 135.434 54.889 134.965 56.6695C133.784 61.6985 133.073 70.0274 133.625 72.9945C135.676 83.629 141.362 88.658 147.595 85.2769C151.543 83.1338 155.332 78.1899 157.465 72.333C163.165 56.4219 154.465 37.6211 143.728 42.8165Z" fill="#652f87"/>
<path d="M168.911 86.9713C168.07 85.6173 167.078 81.2305 167.459 80.6734C167.711 80.15 167.867 79.5818 167.918 78.9984C168.378 74.5341 171.355 72.2208 174.559 73.8958C176.926 75.1724 177.307 76.5264 176.392 81.246C175.092 88.2634 181.733 92.7276 188.681 89.3001C192.804 87.3079 193.866 83.6367 192.041 77.3427C191.581 75.5864 188.144 70.1666 186.774 68.89C179.674 62.3523 174.789 52.2246 176.085 46.7275C178.604 35.5631 191.641 32.6153 199.215 41.5437C199.674 42.1008 200.285 42.8203 200.589 43.2188C204.481 47.6018 204.481 57.2498 200.589 57.331C198.526 57.4084 197.533 55.7333 197.533 52.3832C197.533 48.6385 197 47.2846 194.329 44.3329C190.97 40.4258 186.392 41.1453 183.644 45.9267C182.27 48.3213 182.574 52.7043 184.329 55.4973C185.271 56.9845 186.317 58.3966 187.459 59.7217C188.07 60.36 191.122 64.0274 192.274 65.6212C192.733 66.2595 194.948 68.8088 197.77 71.8378C198.611 72.716 199.144 73.6715 200.826 77.1802C202.274 80.0506 202.733 82.4413 202.274 84.9171C202.044 86.0351 201.741 87.3891 201.663 87.95C201.292 90.1009 197.848 93.687 195.252 94.805C192.733 95.7605 184.415 96.3988 181.896 95.7605C176.241 94.4027 171.355 91.1183 168.911 86.9713Z" fill="#652f87"/>




</svg>
