<svg width="80" height="80" viewBox="0 0 80 80" fill="none" xmlns="http://www.w3.org/2000/svg">
<path d="M17.3194 20.6963C17.3194 20.5407 17.3194 20.3778 17.3194 20.2148C17.3184 18.988 17.5597 17.773 18.0294 16.6396C18.4991 15.5063 19.188 14.4768 20.0565 13.6103C20.9251 12.7438 21.9562 12.0574 23.0907 11.5904C24.2251 11.1234 25.4407 10.885 26.6675 10.8889C26.8379 10.8889 27.0157 10.8889 27.186 10.8889C27.8413 9.75019 28.7488 8.77677 29.8388 8.04335C30.9289 7.30992 32.1724 6.83597 33.4741 6.65789C34.7757 6.4798 36.1009 6.60231 37.3479 7.01601C38.5948 7.42971 39.7304 8.1236 40.6675 9.04443C41.4744 8.04807 42.4938 7.24456 43.651 6.69262C44.8083 6.14068 46.0743 5.85424 47.3564 5.85424C48.6385 5.85424 49.9045 6.14068 51.0618 6.69262C52.219 7.24456 53.2383 8.04807 54.0453 9.04443C54.8563 8.73409 55.7176 8.57589 56.586 8.57777C57.636 8.58029 58.6727 8.81291 59.6231 9.25925C56.5601 5.78803 52.6184 3.20626 48.2125 1.78542C43.8065 0.364585 39.0992 0.157177 34.5853 1.18501C30.0715 2.21284 25.918 4.43794 22.5617 7.62632C19.2053 10.8147 16.77 14.8485 15.512 19.3037L15.2305 22.5926C15.8027 21.836 16.5111 21.1929 17.3194 20.6963Z" fill="#6FC0DC"/>
<path d="M72.4522 42.874L66.9263 25.0295L64.7559 18.9554L64.3633 17.0369C64.1485 16.4962 63.9115 15.9703 63.667 15.4443C63.667 15.5258 63.667 15.6073 63.667 15.6962C63.6702 16.5441 63.517 17.3853 63.2152 18.1777C64.1059 18.846 64.7981 19.744 65.2177 20.7755C65.6373 21.807 65.7685 22.9332 65.5973 24.0336C65.4261 25.1339 64.9589 26.167 64.2457 27.0222C63.5325 27.8775 62.6002 28.5227 61.5485 28.8888C61.1 29.8056 60.3804 30.5624 59.4874 31.0566C58.5944 31.5509 57.571 31.7586 56.5559 31.6517C55.9822 31.6509 55.4139 31.5403 54.8818 31.3258C54.2675 32.1205 53.4682 32.753 52.5536 33.1682C51.6389 33.5835 50.6367 33.7689 49.634 33.7083C48.6314 33.6476 47.6588 33.3429 46.8008 32.8205C45.9429 32.2981 45.2256 31.5739 44.7115 30.711C44.3935 31.8627 43.7477 32.8971 42.8525 33.6884C41.9574 34.4797 40.8515 34.9938 39.6695 35.168C38.4875 35.3423 37.2803 35.1692 36.1949 34.6698C35.1095 34.1705 34.1926 33.3664 33.5559 32.3554C33.4314 33.6798 32.8822 34.9284 31.9903 35.9153C31.0984 36.9021 29.9114 37.5743 28.6064 37.8316C27.3013 38.089 25.9481 37.9177 24.7483 37.3433C23.5485 36.769 22.5664 35.8223 21.9485 34.6443C21.7189 34.6443 21.4818 34.6443 21.2448 34.6443C19.8749 34.6468 18.5303 34.2756 17.3556 33.5708C16.1809 32.866 15.2206 31.8542 14.5781 30.6443L15.43 73.948C15.4474 74.8794 15.8297 75.7668 16.4947 76.4192C17.1596 77.0717 18.054 77.4371 18.9855 77.4369H46.2744V69.8592C49.4109 70.4013 52.5818 70.7206 55.7633 70.8147C56.2995 70.8306 56.8333 70.7386 57.3333 70.5444C57.8333 70.3501 58.2891 70.0574 58.6739 69.6837C59.0587 69.31 59.3645 68.8628 59.5733 68.3687C59.782 67.8747 59.8895 67.3437 59.8892 66.8073V62.4592C59.7411 62.4592 59.5929 62.4592 59.4374 62.4592H59.1041C54.5781 62.3554 50.3115 60.0962 47.0966 56.0962C46.8638 55.8015 46.7576 55.4264 46.8014 55.0534C46.8452 54.6804 47.0353 54.3401 47.33 54.1073C47.6247 53.8745 47.9998 53.7683 48.3727 53.8121C48.7457 53.8558 49.0861 54.046 49.3189 54.3406C52.0078 57.6888 55.5189 59.5703 59.2078 59.6592C59.4448 59.6592 59.6818 59.6592 59.9485 59.6592V47.5406L69.4152 47.3258C69.9428 47.3162 70.4604 47.1802 70.9246 46.9295C71.3889 46.6787 71.7864 46.3204 72.0838 45.8845C72.3811 45.4486 72.5698 44.9478 72.6339 44.424C72.698 43.9002 72.6357 43.3687 72.4522 42.874Z" fill="#6FC0DC"/>
<g opacity="0.8">
<path opacity="0.8" d="M17.3194 20.6963C17.3194 20.5407 17.3194 20.3778 17.3194 20.2148C17.3184 18.988 17.5597 17.773 18.0294 16.6396C18.4991 15.5063 19.188 14.4768 20.0565 13.6103C20.9251 12.7438 21.9562 12.0574 23.0907 11.5904C24.2251 11.1234 25.4407 10.885 26.6675 10.8889C26.8379 10.8889 27.0157 10.8889 27.186 10.8889C27.8413 9.75019 28.7488 8.77677 29.8388 8.04335C30.9289 7.30992 32.1724 6.83597 33.4741 6.65789C34.7757 6.4798 36.1009 6.60231 37.3479 7.01601C38.5948 7.42971 39.7304 8.1236 40.6675 9.04443C41.4744 8.04807 42.4938 7.24456 43.651 6.69262C44.8083 6.14068 46.0743 5.85424 47.3564 5.85424C48.6385 5.85424 49.9045 6.14068 51.0618 6.69262C52.219 7.24456 53.2383 8.04807 54.0453 9.04443C54.8563 8.73409 55.7176 8.57589 56.586 8.57777C57.636 8.58029 58.6727 8.81291 59.6231 9.25925C56.5601 5.78803 52.6184 3.20626 48.2125 1.78542C43.8065 0.364585 39.0992 0.157177 34.5853 1.18501C30.0715 2.21284 25.918 4.43794 22.5617 7.62632C19.2053 10.8147 16.77 14.8485 15.512 19.3037L15.2305 22.5926C15.8027 21.836 16.5111 21.1929 17.3194 20.6963Z" fill="#6FC0DC"/>
<path opacity="0.8" d="M72.4522 42.874L66.9263 25.0295L64.7559 18.9554L64.3633 17.0369C64.1485 16.4962 63.9115 15.9703 63.667 15.4443C63.667 15.5258 63.667 15.6073 63.667 15.6962C63.6702 16.5441 63.517 17.3853 63.2152 18.1777C64.1059 18.846 64.7981 19.744 65.2177 20.7755C65.6373 21.807 65.7685 22.9332 65.5973 24.0336C65.4261 25.1339 64.9589 26.167 64.2457 27.0222C63.5325 27.8775 62.6002 28.5227 61.5485 28.8888C61.1 29.8056 60.3804 30.5624 59.4874 31.0566C58.5944 31.5509 57.571 31.7586 56.5559 31.6517C55.9822 31.6509 55.4139 31.5403 54.8818 31.3258C54.2675 32.1205 53.4682 32.753 52.5536 33.1682C51.6389 33.5835 50.6367 33.7689 49.634 33.7083C48.6314 33.6476 47.6588 33.3429 46.8008 32.8205C45.9429 32.2981 45.2256 31.5739 44.7115 30.711C44.3935 31.8627 43.7477 32.8971 42.8525 33.6884C41.9574 34.4797 40.8515 34.9938 39.6695 35.168C38.4875 35.3423 37.2803 35.1692 36.1949 34.6698C35.1095 34.1705 34.1926 33.3664 33.5559 32.3554C33.4314 33.6798 32.8822 34.9284 31.9903 35.9153C31.0984 36.9021 29.9114 37.5743 28.6064 37.8316C27.3013 38.089 25.9481 37.9177 24.7483 37.3433C23.5485 36.769 22.5664 35.8223 21.9485 34.6443C21.7189 34.6443 21.4818 34.6443 21.2448 34.6443C19.8749 34.6468 18.5303 34.2756 17.3556 33.5708C16.1809 32.866 15.2206 31.8542 14.5781 30.6443L15.43 73.948C15.4474 74.8794 15.8297 75.7668 16.4947 76.4192C17.1596 77.0717 18.054 77.4371 18.9855 77.4369H46.2744V69.8592C49.4109 70.4013 52.5818 70.7206 55.7633 70.8147C56.2995 70.8306 56.8333 70.7386 57.3333 70.5444C57.8333 70.3501 58.2891 70.0574 58.6739 69.6837C59.0587 69.31 59.3645 68.8628 59.5733 68.3687C59.782 67.8747 59.8895 67.3437 59.8892 66.8073V62.4592C59.7411 62.4592 59.5929 62.4592 59.4374 62.4592H59.1041C54.5781 62.3554 50.3115 60.0962 47.0966 56.0962C46.8638 55.8015 46.7576 55.4264 46.8014 55.0534C46.8452 54.6804 47.0353 54.3401 47.33 54.1073C47.6247 53.8745 47.9998 53.7683 48.3727 53.8121C48.7457 53.8558 49.0861 54.046 49.3189 54.3406C52.0078 57.6888 55.5189 59.5703 59.2078 59.6592C59.4448 59.6592 59.6818 59.6592 59.9485 59.6592V47.5406L69.4152 47.3258C69.9428 47.3162 70.4604 47.1802 70.9246 46.9295C71.3889 46.6787 71.7864 46.3204 72.0838 45.8845C72.3811 45.4486 72.5698 44.9478 72.6339 44.424C72.698 43.9002 72.6357 43.3687 72.4522 42.874Z" fill="#6FC0DC"/>
</g>
</svg>
